<svg xmlns="http://www.w3.org/2000/svg" viewBox="0 0 64 64">
  <rect width="64" height="64" rx="16" fill="#00A1D6"/>
  <path fill="#fff" d="M21.6 18.5a2.7 2.7 0 0 1 3.8 0L29 22h6l3.6-3.5a2.7 2.7 0 1 1 3.8 3.8L40.2 24h2.5A8.3 8.3 0 0 1 51 32.3v8.4A8.3 8.3 0 0 1 42.7 49H21.3A8.3 8.3 0 0 1 13 40.7v-8.4A8.3 8.3 0 0 1 21.3 24h2.5l-2.2-1.7a2.7 2.7 0 0 1 0-3.8Z"/>
  <path fill="#00A1D6" d="M21.4 31.2h21.2c2 0 3.6 1.6 3.6 3.6v5.7c0 2-1.6 3.6-3.6 3.6H21.4c-2 0-3.6-1.6-3.6-3.6v-5.7c0-2 1.6-3.6 3.6-3.6Z"/>
  <rect x="24" y="35" width="4" height="6" rx="2" fill="#fff"/>
  <rect x="36" y="35" width="4" height="6" rx="2" fill="#fff"/>
</svg>
