<svg xmlns="http://www.w3.org/2000/svg" viewBox="0 0 64 64">
  <rect width="64" height="64" rx="16" fill="#111827"/>
  <path fill="#fff" d="M32 12c-11.1 0-20 9-20 20 0 8.8 5.7 16.3 13.6 19 .9.2 1.2-.4 1.2-.9v-3.5c-5.5 1.2-6.7-2.4-6.7-2.4-.9-2.3-2.2-2.9-2.2-2.9-1.8-1.2.1-1.2.1-1.2 2 .1 3.1 2.1 3.1 2.1 1.8 3.1 4.7 2.2 5.8 1.7.2-1.3.7-2.2 1.3-2.7-4.4-.5-9-2.2-9-9.8 0-2.2.8-3.9 2.1-5.3-.2-.5-.9-2.7.2-5.3 0 0 1.7-.5 5.5 2.1 1.6-.4 3.3-.7 5-.7s3.4.2 5 .7c3.8-2.6 5.5-2.1 5.5-2.1 1.1 2.6.4 4.8.2 5.3 1.3 1.4 2.1 3.1 2.1 5.3 0 7.6-4.6 9.3-9 9.8.7.6 1.4 1.9 1.4 3.8v5.1c0 .5.3 1.1 1.3.9C46.3 48.3 52 40.8 52 32c0-11-8.9-20-20-20Z"/>
</svg>
